{"title":"Tiesto Ft. Steve Aoki - Tornado (h264/mp4)","uid":7677275,"size":214245593,"categoryP":"video","categoryS":"music_videos","magnet":"?xt=urn:btih:86903bee71a94b12cf783239e5a4419cd1c7d0c4&amp;dn=Tiesto+Ft.+Steve+Aoki+-+Tornado+%28h264%2Fmp4%29&amp;tr=udp%3A%2F%2Ftracker.openbittorrent.com%3A80&amp;tr=udp%3A%2F%2Fopen.demonii.com%3A1337&amp;tr=udp%3A%2F%2Ftracker.coppersurfer.tk%3A6969&amp;tr=udp%3A%2F%2Fexodus.desync.com%3A6969","seeders":1,"leechers":0,"uploader":"MusicVideos-HQ","files":1,"time":1348727633,"description":"General\n\nFormat                         : MPEG-4\nFormat profile                 : Base Media\nCodec ID                       : isom\nFile size                      : 204 MiB\nDuration                       : 4mn 44s\nOverall bit rate mode          : Variable\nOverall bit rate               : 6 024 Kbps\nEncoded date                   : UTC 2012-09-25 03:02:25\nTagged date                    : UTC 2012-09-25 03:02:25\n\nVideo\nID                             : 1\nFormat                         : AVC\nFormat/Info                    : Advanced Video Codec\nFormat profile                 : &lt;a class=&quot;__cf_email__&quot; href=&quot;/cdn-cgi/l/email-protection&quot; data-cfemail=&quot;c981a0aea18985fae7f9&quot;&gt;[email&amp;#160;protected]&lt;/a&gt;&lt;script cf-hash='f9e31' type=&quot;text/javascript&quot;&gt;\n/* &lt;![CDATA[ */!function(){try{var t=&quot;currentScript&quot;in document?document.currentScript:function(){for(var t=document.getElementsByTagName(&quot;script&quot;),e=t.length;e--;)if(t[e].getAttribute(&quot;cf-hash&quot;))return t[e]}();if(t&amp;&amp;t.previousSibling){var e,r,n,i,c=t.previousSibling,a=c.getAttribute(&quot;data-cfemail&quot;);if(a){for(e=&quot;&quot;,r=parseInt(a.substr(0,2),16),n=2;a.length-n;n+=2)i=parseInt(a.substr(n,2),16)^r,e+=String.fromCharCode(i);e=document.createTextNode(e),c.parentNode.replaceChild(e,c)}}}catch(u){}}();/* ]]&gt; */&lt;/script&gt;\nFormat settings, CABAC         : Yes\nFormat settings, ReFrames      : 2 frames\nCodec ID                       : avc1\nCodec ID/Info                  : Advanced Video Coding\nDuration                       : 4mn 44s\nBit rate                       : 5 942 Kbps\nMaximum bit rate               : 14.4 Mbps\nWidth                          : 720 pixels\nHeight                         : 480 pixels\nDisplay aspect ratio           : 16:9\nOriginal display aspect ratio  : 16:9\nFrame rate mode                : Constant\nFrame rate                     : 23.976 fps\nStandard                       : NTSC\nColor space                    : YUV\nChroma subsampling             : 4:2:0\nBit depth                      : 8 bits\nScan type                      : Progressive\nBits/(Pixel*Frame)             : 0.717\nStream size                    : 202 MiB (99%)\n\n\nAudio\nID                             : 2\nFormat                         : AAC\nFormat/Info                    : Advanced Audio Codec\nFormat profile                 : LC\nCodec ID                       : 40\nDuration                       : 4mn 44s\nBit rate mode                  : Variable\nBit rate                       : 78.6 Kbps\nMaximum bit rate               : 89.0 Kbps\nChannel(s)                     : 2 channels\nChannel positions              : Front: L R\nSampling rate                  : 44.1 KHz\nCompression mode               : Lossy\nStream size                    : 2.67 MiB (1%)","torrent":{"xt":"urn:btih:86903bee71a94b12cf783239e5a4419cd1c7d0c4","amp;dn":"Tiesto+Ft.+Steve+Aoki+-+Tornado+%28h264%2Fmp4%29","amp;tr":["udp%3A%2F%2Ftracker.openbittorrent.com%3A80","udp%3A%2F%2Fopen.demonii.com%3A1337","udp%3A%2F%2Ftracker.coppersurfer.tk%3A6969","udp%3A%2F%2Fexodus.desync.com%3A6969"],"infoHash":"86903bee71a94b12cf783239e5a4419cd1c7d0c4","infoHashBuffer":{"type":"Buffer","data":[134,144,59,238,113,169,75,18,207,120,50,57,229,164,65,156,209,199,208,196]},"announce":[],"urlList":[]}}